<svg width="100%" viewBox="0 0 680 380" role="img" xmlns="http://www.w3.org/2000/svg">
<title>The AI Neighbor hero background</title>
<desc>A warm illustrated neighborhood at dusk with subtle signal arcs in the sky, navy and slate tones with warm window light</desc>

<style>
  .sky { fill: #0F1E2E; }
  .hill-back { fill: #162636; }
  .hill-mid { fill: #1B2D45; }
  .ground { fill: #152234; }
  .house-body { fill: #1E3550; }
  .house-body-light { fill: #243F60; }
  .roof { fill: #0F1A28; }
  .roof-mid { fill: #142030; }
  .window-warm { fill: #F5C87A; }
  .window-cool { fill: #7BB8E0; }
  .door { fill: #0F1A28; }
  .tree { fill: #152234; }
  .signal { fill: none; stroke: #4A8FC0; stroke-linecap: round; }
  .signal-faint { fill: none; stroke: #7BB8E0; stroke-linecap: round; }
  .star { fill: #7BB8E0; }
</style>

<rect x="0" y="0" width="680" height="380" class="sky"/>
<circle cx="60" cy="30" r="1.5" class="star" opacity="0.6"/>
<circle cx="120" cy="18" r="1" class="star" opacity="0.5"/>
<circle cx="200" cy="40" r="1.5" class="star" opacity="0.7"/>
<circle cx="310" cy="22" r="1" class="star" opacity="0.4"/>
<circle cx="420" cy="35" r="1.5" class="star" opacity="0.6"/>
<circle cx="520" cy="15" r="1" class="star" opacity="0.5"/>
<circle cx="600" cy="42" r="1.5" class="star" opacity="0.7"/>
<circle cx="650" cy="25" r="1" class="star" opacity="0.4"/>
<circle cx="88" cy="55" r="1" class="star" opacity="0.3"/>
<circle cx="460" cy="58" r="1" class="star" opacity="0.4"/>
<circle cx="560" cy="50" r="1.5" class="star" opacity="0.5"/>
<path d="M260,8 Q340,-30 420,8" class="signal" stroke-width="2.5" opacity="0.25"/>
<path d="M278,28 Q340,0 402,28" class="signal" stroke-width="2.5" opacity="0.45"/>
<path d="M298,48 Q340,26 382,48" class="signal-faint" stroke-width="2.5" opacity="0.7"/>
<circle cx="340" cy="62" r="5" fill="#4A8FC0" opacity="0.8"/>
<ellipse cx="100" cy="230" rx="180" ry="80" class="hill-back"/>
<ellipse cx="580" cy="240" rx="180" ry="80" class="hill-back"/>
<ellipse cx="340" cy="245" rx="280" ry="90" class="hill-mid"/>
<rect x="0" y="290" width="680" height="90" class="ground"/>
<rect x="32" y="230" width="72" height="68" class="house-body"/>
<polygon points="32,232 104,232 68,196" class="roof"/>
<rect x="50" y="248" width="16" height="14" class="window-warm" opacity="0.9"/>
<rect x="74" y="248" width="16" height="14" class="window-warm" opacity="0.7"/>
<rect x="58" y="265" width="20" height="33" class="door"/>
<ellipse cx="20" cy="248" rx="14" ry="22" class="tree" opacity="0.8"/>
<rect x="17" y="262" width="6" height="28" class="tree"/>
<rect x="118" y="200" width="110" height="95" class="house-body-light"/>
<polygon points="114,204 232,204 173,162" class="roof-mid"/>
<rect x="126" y="218" width="22" height="20" class="window-warm" opacity="0.95"/>
<rect x="158" y="218" width="22" height="20" class="window-warm" opacity="0.8"/>
<rect x="196" y="220" width="22" height="18" class="window-cool" opacity="0.6"/>
<rect x="148" y="255" width="28" height="40" class="door"/>
<ellipse cx="112" cy="230" rx="16" ry="26" class="tree" opacity="0.7"/>
<rect x="109" y="248" width="6" height="42" class="tree"/>
<ellipse cx="236" cy="238" rx="12" ry="20" class="tree" opacity="0.6"/>
<rect x="233" y="252" width="5" height="38" class="tree"/>
<rect x="272" y="178" width="136" height="118" class="house-body-light"/>
<polygon points="266,182 414,182 340,134" class="roof"/>
<rect x="282" y="198" width="26" height="24" class="window-warm" opacity="0.95"/>
<rect x="372" y="198" width="26" height="24" class="window-warm" opacity="0.95"/>
<rect x="316" y="200" width="48" height="22" class="window-cool" opacity="0.5"/>
<rect x="306" y="242" width="68" height="54" class="door"/>
<rect x="285" y="232" width="22" height="18" class="window-warm" opacity="0.7"/>
<rect x="373" y="232" width="22" height="18" class="window-warm" opacity="0.8"/>
<rect x="356" y="126" width="14" height="30" class="roof"/>
<rect x="354" y="122" width="18" height="8" class="roof"/>
<rect x="452" y="208" width="110" height="88" class="house-body"/>
<polygon points="448,212 566,212 508,170" class="roof-mid"/>
<rect x="462" y="226" width="22" height="18" class="window-warm" opacity="0.9"/>
<rect x="494" y="226" width="22" height="18" class="window-warm" opacity="0.6"/>
<rect x="528" y="228" width="18" height="16" class="window-cool" opacity="0.5"/>
<rect x="482" y="258" width="26" height="38" class="door"/>
<ellipse cx="444" cy="238" rx="14" ry="22" class="tree" opacity="0.7"/>
<rect x="441" y="254" width="6" height="36" class="tree"/>
<ellipse cx="570" cy="232" rx="18" ry="28" class="tree" opacity="0.8"/>
<rect x="567" y="252" width="6" height="38" class="tree"/>
<rect x="594" y="238" width="72" height="58" class="house-body"/>
<polygon points="590,240 670,240 630,206" class="roof"/>
<rect x="604" y="252" width="16" height="14" class="window-warm" opacity="0.8"/>
<rect x="628" y="252" width="16" height="14" class="window-warm" opacity="0.6"/>
<rect x="614" y="268" width="20" height="28" class="door"/>
<rect x="0" y="288" width="680" height="4" fill="#1B2D45" opacity="0.8"/>
<line x1="60" y1="288" x2="60" y2="300" stroke="#243F60" stroke-width="3"/>
<line x1="80" y1="288" x2="80" y2="300" stroke="#243F60" stroke-width="3"/>
<line x1="240" y1="288" x2="240" y2="300" stroke="#243F60" stroke-width="3"/>
<line x1="260" y1="288" x2="260" y2="300" stroke="#243F60" stroke-width="3"/>
<line x1="420" y1="288" x2="420" y2="300" stroke="#243F60" stroke-width="3"/>
<line x1="440" y1="288" x2="440" y2="300" stroke="#243F60" stroke-width="3"/>
<line x1="620" y1="288" x2="620" y2="300" stroke="#243F60" stroke-width="3"/>
<line x1="640" y1="288" x2="640" y2="300" stroke="#243F60" stroke-width="3"/>
<rect x="0" y="304" width="680" height="76" fill="#111C28"/>
<rect x="0" y="338" width="80" height="4" fill="#243F60" opacity="0.4"/>
<rect x="120" y="338" width="80" height="4" fill="#243F60" opacity="0.4"/>
<rect x="240" y="338" width="80" height="4" fill="#243F60" opacity="0.4"/>
<rect x="360" y="338" width="80" height="4" fill="#243F60" opacity="0.4"/>
<rect x="480" y="338" width="80" height="4" fill="#243F60" opacity="0.4"/>
<rect x="600" y="338" width="80" height="4" fill="#243F60" opacity="0.4"/>
<rect x="0" y="0" width="680" height="380" fill="#0A1520" opacity="0.35"/>

</svg>
